<svg width="14" height="14" viewBox="0 0 14 14" fill="none" xmlns="http://www.w3.org/2000/svg">
<rect width="14" height="14" rx="4" fill="#40D081"/>
<path d="M7.12429 3.72727H8.66193V8.45028C8.66193 8.98059 8.53527 9.4446 8.28196 9.84233C8.03101 10.2401 7.67945 10.5502 7.22727 10.7727C6.77509 10.9929 6.24834 11.103 5.64702 11.103C5.04332 11.103 4.51539 10.9929 4.06321 10.7727C3.61103 10.5502 3.25947 10.2401 3.00852 9.84233C2.75758 9.4446 2.6321 8.98059 2.6321 8.45028V3.72727H4.16974V8.31889C4.16974 8.59588 4.23011 8.84209 4.35085 9.05753C4.47396 9.27296 4.64678 9.44223 4.86932 9.56534C5.09186 9.68845 5.35109 9.75 5.64702 9.75C5.94531 9.75 6.20455 9.68845 6.42472 9.56534C6.64725 9.44223 6.81889 9.27296 6.93963 9.05753C7.06274 8.84209 7.12429 8.59588 7.12429 8.31889V3.72727ZM11.4647 3.72727V11H9.92702V3.72727H11.4647Z" fill="black"/>
</svg>
